<svg width="43" height="45" viewBox="0 0 43 45" fill="none" xmlns="http://www.w3.org/2000/svg">
<path d="M16.125 24.375C14.9425 24.9937 13.9571 25.9125 13.2225 27.0563C12.8104 27.7125 12.8104 28.5375 13.2225 29.1937C13.9571 30.3375 14.9425 31.2562 16.125 31.875M27.2513 24.375C28.4338 24.9937 29.4192 25.9125 30.1538 27.0563C30.5658 27.7125 30.5658 28.5375 30.1538 29.1937C29.4192 30.3375 28.4338 31.2562 27.2513 31.875" stroke="#A14BCA" stroke-width="2" stroke-linecap="round" stroke-linejoin="round"/>
<path d="M3.9954 15.0188L38.4312 15M16.125 41.25H26.875C35.8333 41.25 39.4167 37.5 39.4167 28.125V16.875C39.4167 7.5 35.8333 3.75 26.875 3.75H16.125C7.16665 3.75 3.58331 7.5 3.58331 16.875V28.125C3.58331 37.5 7.16665 41.25 16.125 41.25Z" stroke="#56007E" stroke-width="2" stroke-linecap="round" stroke-linejoin="round"/>
</svg>
