<svg width="221" height="48" viewBox="0 0 241 58" fill="none" xmlns="http://www.w3.org/2000/svg">
<path d="M98.024 55.4187V54.8444C98.824 54.5588 99.3559 53.8508 99.3559 52.1508C99.3559 50.7258 98.824 50.1576 98.024 49.878V49.3053H98.1609C100.026 49.4511 100.689 50.7288 100.689 52.1508C100.689 54.1395 99.4885 55.2713 98.024 55.4187ZM104.959 49.3038H101.757V55.4156H104.959C104.959 55.2683 104.826 55.13 104.826 54.9887C104.826 54.8414 104.959 54.7031 104.959 54.5588C104.424 54.7062 103.893 54.7062 102.961 54.7062V52.4319H103.893C104.16 52.4319 104.557 52.5732 104.826 52.5732C104.826 52.4319 104.826 52.2891 104.826 52.1508C104.826 52.1508 104.826 52.008 104.826 51.8652C104.558 51.8652 104.16 51.8652 103.893 51.8652H102.961V50.0193C103.893 50.0193 104.425 50.0193 104.959 50.1591C104.959 50.0193 104.826 49.8765 104.826 49.7383C104.826 49.5879 104.959 49.4481 104.959 49.3038ZM107.093 55.4187V52.4319H108.025C108.424 52.4319 108.689 52.5732 108.959 52.5732C108.959 52.4319 108.959 52.2891 108.959 52.1508C108.959 52.1508 108.959 52.008 108.959 51.8652C108.691 51.8652 108.424 51.8652 108.025 51.8652H107.093V50.0193C108.025 50.0193 108.558 50.0193 109.093 50.1591C109.093 50.0193 108.959 49.8765 108.959 49.7383C108.959 49.5894 109.093 49.4526 109.093 49.3083H105.893V55.4202C106.158 55.4202 106.292 55.4202 106.557 55.4202C106.693 55.4187 106.961 55.4187 107.093 55.4187ZM110.161 49.3038V55.4156C110.427 55.4156 110.56 55.4156 110.825 55.4156C110.959 55.4156 111.227 55.4156 111.359 55.4156V49.3038C111.227 49.3038 110.959 49.4481 110.825 49.4481C110.56 49.4481 110.426 49.3038 110.161 49.3038ZM117.362 54.4205H117.225C116.829 54.7062 116.294 54.9933 115.761 54.9933C114.427 54.9933 113.763 53.9982 113.763 52.4319C113.763 51.1527 114.295 49.7352 115.629 49.7352C116.294 49.7352 116.695 50.0208 117.097 50.5875H117.225C117.225 50.1606 117.362 49.878 117.362 49.5909C116.829 49.3053 116.294 49.167 115.629 49.167C113.894 49.167 112.427 50.3065 112.427 52.5762C112.427 54.4221 113.763 55.5615 115.495 55.5615C116.029 55.5615 116.695 55.4217 117.097 55.1376L117.362 54.4205ZM118.429 49.3038V55.4156C118.695 55.4156 118.831 55.4156 119.095 55.4156C119.227 55.4156 119.495 55.4156 119.632 55.4156V49.3038C119.495 49.3038 119.227 49.4481 119.095 49.4481C118.831 49.4481 118.694 49.3038 118.429 49.3038ZM123.366 55.4187V50.0178C123.897 50.0178 124.429 50.0178 124.964 50.1576C124.83 50.0178 124.83 49.8735 124.83 49.7352C124.83 49.5879 124.83 49.4496 124.964 49.3053H120.565C120.565 49.4511 120.702 49.5909 120.702 49.7352C120.702 49.878 120.565 50.0208 120.565 50.1576C121.1 50.0178 121.499 50.0178 122.163 50.0178V55.4187C122.3 55.4187 122.566 55.4187 122.704 55.4187C122.965 55.4187 123.227 55.4187 123.366 55.4187ZM98.024 49.3038V49.8735C97.7559 49.8735 97.6218 49.8735 97.3594 49.8735H96.6892V54.8429H97.3594C97.4892 54.8429 97.7559 54.8429 98.024 54.8429V55.4172C97.8899 55.4172 97.7559 55.4172 97.7559 55.4172H95.3587V49.3038H98.024ZM62.2824 55.56V54.9933C63.6158 54.9933 64.1505 53.7141 64.1505 52.1508C64.1505 51.0114 63.6158 49.7352 62.4165 49.7352H62.2839V49.1625H62.4165C64.8179 49.1625 65.4824 51.0114 65.4824 52.2921C65.481 53.9952 64.2803 55.56 62.2824 55.56ZM67.6143 55.4187V52.4319H68.5483C68.8164 52.4319 69.2143 52.5732 69.6164 52.5732C69.4824 52.4319 69.4824 52.2891 69.4824 52.1508C69.4824 52.1508 69.4824 52.008 69.6164 51.8652C69.2143 51.8652 68.8164 51.8652 68.5483 51.8652H67.6143V50.0193C68.5483 50.0193 69.0831 50.0193 69.6164 50.1591C69.6164 50.0193 69.4824 49.8765 69.4824 49.7383C69.4824 49.5894 69.6164 49.4526 69.6164 49.3083H66.4164V55.4202C66.6817 55.4202 66.8143 55.4202 67.081 55.4202C67.2164 55.4187 67.4845 55.4187 67.6143 55.4187ZM70.6845 49.3038V55.4156C70.8185 55.4156 71.0838 55.4156 71.3519 55.4156C71.4845 55.4156 71.7512 55.4156 71.8838 55.4156V49.3038C71.7526 49.3038 71.4845 49.4481 71.3519 49.4481C71.0824 49.4481 70.8185 49.3038 70.6845 49.3038ZM77.883 54.4205H77.7504C77.3525 54.7062 76.6852 54.9933 76.283 54.9933C74.9497 54.9933 74.2852 53.9982 74.2852 52.4319C74.2852 51.1527 74.8171 49.7352 76.283 49.7352C76.6852 49.7352 77.217 50.0208 77.6178 50.5875H77.7504C77.7504 50.1606 77.7504 49.878 77.883 49.5909C77.3525 49.3053 76.6852 49.167 76.1518 49.167C74.4149 49.167 72.9533 50.3065 72.9533 52.5762C72.9533 54.4221 74.2866 55.5615 76.0192 55.5615C76.5497 55.5615 77.2185 55.4217 77.6192 55.1376L77.883 54.4205ZM78.9539 49.3038V55.4156C79.2177 55.4156 79.3518 55.4156 79.6185 55.4156C79.7482 55.4156 80.0149 55.4156 80.1532 55.4156V49.3038C80.0163 49.3038 79.7496 49.4481 79.6185 49.4481C79.3532 49.4481 79.2192 49.3038 78.9539 49.3038ZM83.8851 55.4187V50.0178C84.4198 50.0178 84.9546 50.0178 85.3524 50.1576C85.3524 50.0178 85.3524 49.8735 85.3524 49.7352C85.3524 49.5879 85.3524 49.4496 85.3524 49.3053H81.0844C81.2199 49.4511 81.2199 49.5909 81.2199 49.7352C81.2199 49.878 81.2199 50.0208 81.0844 50.1576C81.6191 50.0178 82.151 50.0178 82.6858 50.0178V55.4187C82.8198 55.4187 83.0822 55.4187 83.3532 55.4187C83.4872 55.4187 83.7539 55.4187 83.8851 55.4187ZM87.3546 54.9933C87.6212 54.5633 87.3546 54.1395 86.951 54.1395C86.5531 54.1395 86.4205 54.1395 86.4205 54.4205C86.2879 54.7062 86.1524 55.1331 86.1524 55.2744L85.7532 56.9789L86.0184 57.1278C86.4205 56.4077 86.951 55.56 87.3546 54.9933ZM62.2824 49.1625V49.7352C61.2172 49.7352 60.5513 50.7258 60.5513 52.5732C60.5513 53.7141 61.0832 54.9933 62.2824 54.9933V55.56C60.4158 55.56 59.2151 54.4205 59.2151 52.4319C59.2151 50.5845 60.2803 49.3038 62.2824 49.1625ZM56.2804 53.7141V52.1508C56.8151 52.008 56.9477 51.5811 56.9477 51.0114C56.9477 50.8716 56.9477 50.7258 56.9477 50.4447C56.8151 50.0208 56.6796 49.878 56.2804 49.878V49.3053C56.6796 49.3053 57.2144 49.3053 57.6151 49.4511C58.0144 49.878 58.2825 50.1606 58.2825 50.8731C58.2825 51.5856 57.7463 52.2951 56.9463 52.4349C57.347 53.2857 57.8832 54.1425 58.4123 54.8474L58.813 55.4217C58.5477 55.4217 58.2811 55.4217 58.013 55.4217C57.7449 55.4217 57.4782 55.4217 57.2115 55.4217L56.2804 53.7141ZM56.2804 49.3038V49.8735C56.1477 49.7337 55.8797 49.8735 55.747 49.8735V52.1462C55.8797 52.2891 56.1463 52.1462 56.2804 52.1462V53.7111V53.5652C56.1477 53.2796 55.8797 52.997 55.747 52.5701V55.4156C55.4804 55.4156 55.2137 55.4156 55.0797 55.4156C54.8116 55.4156 54.679 55.4156 54.4123 55.4156V49.3038H56.1463H56.2804ZM51.7471 52.716V52.1462C52.1449 52.0034 52.2804 51.5796 52.2804 51.0068C52.2804 50.4401 52.0123 49.8735 51.7471 49.8735V49.3038H51.8783C52.9464 49.3038 53.6137 49.8735 53.6137 50.8671C53.6137 52.1462 52.8123 52.716 51.7471 52.716ZM51.7471 49.3038V49.8735C51.6145 49.8735 51.6145 49.8735 51.479 49.8735H51.0783V52.2891C51.2109 52.2891 51.3449 52.2891 51.613 52.2891C51.613 52.2891 51.613 52.1462 51.7457 52.1462V52.716C51.4776 52.716 51.2109 52.8588 51.0783 52.8588V55.4187C50.8102 55.4187 50.5435 55.4187 50.4095 55.4187C50.2783 55.4187 50.0116 55.4187 49.879 55.4187V49.3053H51.7471V49.3038ZM32.5401 55.56V54.9933C33.7408 54.9933 34.2756 53.7141 34.2756 52.1508C34.2756 51.0114 33.8749 49.7352 32.5401 49.7352V49.1625H32.6742C34.9387 49.1625 35.7415 51.0114 35.7415 52.2921C35.7415 53.9952 34.5408 55.56 32.5401 55.56ZM36.6756 49.3038V55.4156C36.8096 55.4156 36.9422 55.4156 37.0748 55.4156C37.0748 55.4156 37.2117 55.4156 37.3415 55.4156V51.1496L38.2756 52.1447C39.2096 53.1413 40.1436 54.2732 41.0748 55.4126H41.7408V49.2992C41.6096 49.2992 41.4769 49.2992 41.3415 49.2992C41.3415 49.2992 41.2103 49.2992 41.0748 49.2992V53.4239C39.877 52.1447 38.6734 50.7227 37.4756 49.2992H36.6756V49.3038ZM3.20139 49.7352C4.40067 49.7352 4.934 51.0114 4.934 52.1508C4.934 53.8508 4.26662 54.9933 3.20139 54.9933V55.6997L3.99996 56.2725C4.40067 56.5551 4.80138 56.9774 5.20066 57.2661C5.60137 56.9789 6.00065 56.8361 6.40279 56.6933C5.59994 56.2725 4.934 55.841 4.2652 55.4187C5.4659 54.9933 6.26732 53.7141 6.26732 52.2891C6.26732 50.4401 5.06376 49.1609 3.19997 49.1609L3.20139 49.7352ZM32.5401 49.1625V49.7352C31.3423 49.7352 30.6735 50.7258 30.6735 52.5732C30.6735 53.7141 31.2068 54.9933 32.5401 54.9933V55.56H32.4075C30.5409 55.56 29.3402 54.4205 29.3402 52.4319C29.3402 50.5845 30.5409 49.3038 32.5401 49.1625ZM7.33397 49.3038V53.0001C7.33397 53.2842 7.46659 53.7141 7.46659 54.1395C7.8673 55.2713 8.93253 55.56 9.86799 55.56C10.4027 55.56 11.0687 55.4187 11.4694 55.1331C12.2708 54.4205 12.2708 53.5713 12.2708 52.4349V49.3053C12.2708 49.3053 12.1353 49.3053 12.0042 49.3053C11.8687 49.3053 11.8687 49.3053 11.7375 49.3053V52.008C11.7375 52.4319 11.7375 53.43 11.4694 53.8508C11.2013 54.7062 10.8006 54.9933 10.0006 54.9933C9.73395 54.9933 9.33609 54.8444 9.068 54.5633C8.80276 54.2792 8.80276 53.9982 8.66872 53.5713C8.53753 53.1474 8.53753 52.2891 8.53753 51.8621V49.3038C8.40205 49.3038 8.13539 49.4481 8.00135 49.4481C7.8673 49.4481 7.60064 49.3038 7.33397 49.3038ZM13.8708 49.3038V55.4156C14.002 55.4156 14.2672 55.4156 14.4041 55.4156C14.6708 55.4156 14.9375 55.4156 15.0701 55.4156V49.3038C14.9375 49.3038 14.6708 49.4481 14.4041 49.4481C14.2687 49.4481 14.002 49.3038 13.8708 49.3038ZM23.3381 49.3038V55.4156C23.4736 55.4156 23.6048 55.4156 23.6048 55.4156C23.7388 55.4156 23.8714 55.4156 24.0055 55.4156V51.1496L24.9395 52.1447C25.8735 53.1413 26.6735 54.2732 27.7402 55.4126H28.4061V49.2992C28.2707 49.2992 28.138 49.2992 28.0068 49.2992C27.8728 49.2992 27.8728 49.2992 27.7388 49.2992V53.4239C26.5366 52.1447 25.3359 50.7227 24.1381 49.2992H23.3381V49.3038ZM1.33189 52.5732C1.33189 51.0114 1.86665 49.7352 3.20139 49.7352V49.1625C1.46737 49.3053 0 50.4447 0 52.4319C0 54.419 1.2007 55.56 3.0702 55.56L3.20139 55.6997V54.9933H3.0702C1.86522 54.9933 1.33189 53.7141 1.33189 52.5732Z" fill="white"/>
<path d="M122.161 46.3199V45.1881H123.366L122.161 43.7676V41.9142L123.765 43.7676V8.38465L122.161 6.54182V4.54859L124.964 7.95775V46.3184H122.161V46.3199ZM110.825 44.19C110.161 43.9059 109.492 43.7691 108.826 43.479C107.892 43.0536 106.825 42.7725 105.894 42.4884V43.7691C107.494 43.9104 109.094 44.3328 110.825 44.4771C110.959 44.4771 110.959 44.19 110.825 44.19ZM122.161 4.55011V6.54334L120.699 4.55011V39.9285L122.161 41.9172V43.7707L119.898 40.9236C119.361 41.0664 118.694 41.2092 118.028 41.2092C117.362 41.352 116.695 41.4949 116.027 41.4949C112.692 41.4949 109.626 40.6426 106.825 39.3664C106.559 39.0808 106.292 38.9395 105.894 38.9395V37.0906C106.425 37.2319 106.961 37.5145 107.494 37.8001C110.162 38.9365 112.964 39.7918 116.029 39.6459C116.696 39.6459 117.227 39.6459 117.764 39.6459C118.296 39.5077 118.563 39.5077 119.096 39.3634V4.8342C115.896 5.40392 112.966 5.1183 110.295 4.26601C109.627 4.1232 109.096 3.84062 108.561 3.69782C107.893 3.41524 107.494 3.26939 106.827 2.98681C106.56 2.84249 106.293 2.7012 105.896 2.56143V0.714039C106.426 0.856847 106.962 1.13943 107.496 1.42352C108.029 1.56633 108.562 1.84891 109.097 2.13453C109.629 2.27733 110.164 2.42014 110.698 2.56143C113.498 3.41524 116.562 3.69782 119.635 2.98681L120.565 2.7012L122.161 4.55011ZM122.161 45.1851V46.3184H105.894V45.1851H122.161ZM105.894 41.2062V40.2141C107.494 40.4982 109.094 41.0649 110.695 41.6377C112.427 42.06 113.894 42.6267 115.229 42.774C115.36 42.9138 115.36 43.0566 115.229 43.0566C114.028 43.0566 112.561 42.6297 110.827 42.2043C109.225 41.9157 107.493 41.4918 105.894 41.2062ZM105.894 42.4884C105.227 42.3426 104.425 42.3426 103.758 42.4884C102.557 42.4884 101.893 43.0536 100.957 43.6233C100.825 43.7691 100.957 43.9089 101.093 43.9089C101.757 43.9089 102.158 43.7676 102.691 43.7676C103.759 43.482 104.827 43.6218 105.896 43.7676L105.894 42.4884ZM105.894 0.712521V2.55991C104.425 1.9902 102.961 1.7061 101.893 1.7061C100.689 1.7061 99.7566 1.9902 98.958 2.4171C98.5587 2.69968 98.024 3.1281 97.7559 3.69478C97.7559 3.69478 97.7559 3.83758 97.7559 3.98039V37.6557C97.8899 37.5099 98.024 37.3701 98.2906 37.2288C99.092 36.7989 100.29 36.3765 101.757 36.3765C102.961 36.3765 104.425 36.5133 105.894 37.086V38.9334C104.425 38.2224 102.961 38.0781 101.893 38.0781C100.689 38.0781 99.7566 38.3637 98.958 38.7937C98.4247 39.0777 98.024 39.6444 97.7559 39.93C97.7559 40.0713 97.7559 40.2156 97.7559 40.3539V43.0521C97.7559 44.3313 99.092 45.1835 100.159 45.1835H105.894V46.3169H100.159C98.1609 46.3169 96.1573 45.3248 96.1573 43.0521V8.81156C92.424 15.7742 87.356 21.3149 81.4894 25.8604V45.8961H80.1546V26.8601C79.2192 27.4237 78.2866 28.1362 77.3554 28.7044C73.6178 31.1215 69.4838 33.2515 65.2186 34.9576V45.8946H64.0179V35.5212C59.2165 37.5129 54.1499 39.0762 49.079 40.3554V45.8946H47.7471V40.6395C43.0755 41.7729 38.0103 42.4884 32.9394 43.1964V45.8946H31.6075V43.3392C27.8742 43.7661 24.1395 44.0456 20.6714 44.3297C11.6034 45.0407 3.87019 45.0407 0 45.1851V43.7661C3.73472 43.7661 11.4694 43.6203 20.5388 42.9108C29.4742 42.1983 39.7443 41.0619 48.4116 39.0747C58.5491 36.5133 68.2831 32.9659 76.6866 27.565C84.8205 22.1656 91.7538 15.2045 96.1573 5.97059V3.98191C96.1573 3.6963 96.1573 3.26939 96.2942 2.98681C96.6892 2.27733 97.2254 1.42352 98.2906 0.998136C99.092 0.429943 100.29 0 101.757 0C102.959 0.00151923 104.424 0.147366 105.894 0.712521ZM105.894 40.2141C104.959 39.9285 104.026 39.9285 103.226 39.9285C101.625 39.9285 100.825 40.7838 99.6225 41.7744C99.4899 41.9172 99.6225 42.06 99.7566 42.06C100.957 41.4918 102.025 41.0664 103.49 41.0664C104.16 41.0664 105.093 41.0664 105.894 41.2092V40.2141Z" fill="white"/>
<path d="M134.795 20.6783L135.384 16.0719C135.464 16.0719 135.571 16.0841 135.711 16.1084C135.85 16.1327 135.932 16.1464 135.962 16.1464C136.1 16.1464 136.213 16.1358 136.315 16.1145C136.415 16.0947 136.496 16.0795 136.552 16.0704C137.013 17.143 137.369 17.9573 137.621 18.5103C137.716 18.726 138.089 19.5267 138.744 20.9183C139.12 21.7296 139.497 22.5333 139.88 23.3308L140.733 21.5625C141.626 19.712 142.461 17.8783 143.241 16.0689H143.401C143.485 16.1084 143.562 16.1282 143.638 16.1282C143.71 16.1282 143.787 16.1282 143.874 16.1282C144.105 16.1282 144.304 16.1099 144.465 16.0689C144.657 17.9315 144.821 19.4462 144.957 20.616C145.094 21.7812 145.192 22.6624 145.259 23.2534L145.604 25.9272C145.617 25.9682 145.634 26.067 145.663 26.2174C145.691 26.3739 145.704 26.4893 145.704 26.5714C145.543 26.5714 145.318 26.5592 145.037 26.5319C144.751 26.503 144.582 26.4939 144.523 26.4939C144.362 26.4939 144.138 26.5045 143.86 26.5319C143.584 26.5607 143.414 26.5714 143.355 26.5714C143.355 25.5793 143.283 24.4475 143.147 23.1774C143.003 21.9058 142.876 20.6783 142.751 19.4902C142.384 20.2802 142.022 21.0657 141.663 21.8481C141.301 22.632 140.941 23.4129 140.588 24.1923C140.345 24.7255 140 25.5185 139.548 26.5714C139.397 26.5714 139.28 26.5714 139.203 26.5714C139.166 26.5714 139.096 26.5714 139 26.5714L137.89 24.1133C137.527 23.305 137.188 22.5621 136.88 21.8845C136.536 21.1462 136.188 20.4048 135.842 19.6558L135.538 22.3737L135.391 24.1117L135.291 25.6173L135.234 26.5699C135.023 26.5288 134.875 26.5015 134.784 26.4985C134.694 26.4909 134.62 26.4909 134.563 26.4909C134.36 26.4909 134.142 26.5167 133.902 26.5699C133.902 26.4772 133.91 26.4012 133.919 26.342C133.927 26.2797 133.954 26.1657 134.005 26.0032C134.055 25.7586 134.119 25.3742 134.208 24.8516C134.267 24.4627 134.334 24.0373 134.413 23.577C134.488 23.1166 134.561 22.5971 134.634 22.0228C134.704 21.4546 134.757 21.0034 134.795 20.6783Z" fill="white"/>
<path d="M158.126 21.3057C158.126 22.0957 157.978 22.8477 157.685 23.5618C157.392 24.2804 156.969 24.8911 156.416 25.4046C155.866 25.9166 155.258 26.2873 154.607 26.5121C153.955 26.7339 153.236 26.8464 152.445 26.8464C151.696 26.8464 150.975 26.7233 150.286 26.4818C149.603 26.2341 149.01 25.8497 148.516 25.3302C148.021 24.8045 147.662 24.2181 147.442 23.5618C147.221 22.907 147.111 22.1747 147.111 21.3665C147.111 20.5704 147.254 19.8154 147.544 19.1089C147.833 18.4025 148.257 17.7978 148.814 17.2904C149.37 16.7845 149.981 16.4168 150.644 16.192C151.307 15.9686 152.024 15.8547 152.793 15.8547C153.426 15.8547 154.025 15.9367 154.585 16.1008C155.148 16.2634 155.666 16.5247 156.137 16.8832C156.529 17.1719 156.837 17.4545 157.058 17.7416C157.319 18.0713 157.523 18.4389 157.683 18.8491C157.839 19.2578 157.953 19.6589 158.022 20.0524C158.095 20.4504 158.126 20.8667 158.126 21.3057ZM152.522 25.9439C153.096 25.9439 153.601 25.789 154.03 25.4836C154.458 25.1752 154.821 24.7407 155.119 24.1786C155.34 23.7365 155.499 23.2473 155.595 22.711C155.688 22.1762 155.739 21.608 155.739 21.0155C155.739 19.8792 155.508 18.922 155.049 18.1427C154.5 17.2114 153.722 16.7465 152.711 16.7465C152.349 16.7465 152.054 16.7799 151.829 16.8468C151.601 16.9106 151.352 17.0519 151.086 17.2676C150.642 17.614 150.316 18.0242 150.1 18.4967C149.884 18.9676 149.731 19.4872 149.644 20.0524C149.56 20.6221 149.516 21.2055 149.516 21.8116C149.516 22.9374 149.747 23.8732 150.209 24.6237C150.741 25.5034 151.512 25.9439 152.522 25.9439Z" fill="white"/>
<path d="M167.843 24.7286L168.031 24.8046L167.712 26.1111C167.3 26.3375 166.848 26.5015 166.357 26.6094C165.864 26.7173 165.369 26.7674 164.858 26.7674C164.403 26.7674 164.014 26.7416 163.689 26.696C163.66 26.6823 163.421 26.6307 162.97 26.538C162.751 26.4879 162.488 26.3861 162.186 26.2402C161.881 26.0913 161.624 25.9455 161.422 25.7996C161.213 25.6584 161.015 25.4836 160.824 25.277C160.667 25.1175 160.51 24.92 160.348 24.6967C160.037 24.2546 159.81 23.7836 159.665 23.2823C159.515 22.7809 159.439 22.237 159.439 21.6567C159.439 20.7057 159.562 19.8837 159.807 19.1986C160.053 18.5119 160.485 17.8768 161.099 17.295C161.617 16.8149 162.233 16.4594 162.953 16.2285C163.668 15.9975 164.406 15.8836 165.179 15.8836C165.687 15.8836 166.203 15.9474 166.719 16.072C167.24 16.2026 167.706 16.385 168.118 16.6189C168.07 16.824 168.014 17.0732 167.951 17.3649C167.891 17.6581 167.834 17.9315 167.787 18.1868H167.583C167.315 17.7766 166.967 17.4484 166.544 17.2053C166.123 16.9592 165.672 16.8362 165.193 16.8362C164.077 16.8362 163.214 17.3223 162.609 18.2946C162.082 19.1454 161.814 20.1937 161.814 21.4425C161.814 22.0259 161.885 22.5849 162.019 23.1243C162.155 23.6606 162.37 24.1376 162.666 24.5508C162.966 24.9671 163.347 25.2892 163.807 25.5201C164.266 25.7495 164.751 25.8665 165.263 25.8665C165.705 25.8665 166.163 25.7586 166.631 25.5505C167.103 25.3424 167.505 25.0674 167.843 24.7286Z" fill="white"/>
<path d="M169.945 26.5713L170.046 23.8048V19.1757L169.958 16.0552C170.119 16.0552 170.344 16.0719 170.631 16.1023C170.91 16.1312 171.086 16.1479 171.138 16.1479C171.518 16.1479 171.883 16.116 172.248 16.0552L172.135 19.4948V20.9213C172.882 19.9976 173.511 19.2031 174.023 18.5361C174.655 17.7142 175.257 16.8877 175.823 16.0567C176.132 16.119 176.393 16.1494 176.619 16.1494C176.867 16.1494 177.138 16.1175 177.424 16.0567L177.407 16.1813L175.06 18.8719C174.85 19.1165 174.683 19.3064 174.569 19.4401C174.522 19.5039 174.257 19.8411 173.775 20.4564L177.565 26.3936V26.5744C177.381 26.5744 177.142 26.5622 176.838 26.5379C176.537 26.5121 176.356 26.5015 176.295 26.5015C175.931 26.5015 175.516 26.5273 175.056 26.5759L173.66 24.2424L172.131 21.769L172.218 26.5759C172.055 26.5759 171.833 26.5638 171.555 26.5394C171.278 26.5136 171.108 26.503 171.051 26.503C170.886 26.503 170.671 26.5151 170.41 26.5394C170.149 26.5607 169.993 26.5713 169.945 26.5713Z" fill="white"/>
<path d="M189.099 21.3057C189.099 22.0957 188.951 22.8477 188.657 23.5618C188.365 24.2804 187.941 24.8911 187.389 25.4046C186.834 25.9166 186.233 26.2873 185.578 26.5121C184.926 26.7339 184.205 26.8464 183.416 26.8464C182.67 26.8464 181.949 26.7233 181.26 26.4818C180.576 26.2341 179.982 25.8497 179.486 25.3302C178.993 24.8045 178.636 24.2181 178.417 23.5618C178.194 22.907 178.083 22.1747 178.083 21.3665C178.083 20.5704 178.231 19.8154 178.515 19.1089C178.807 18.4025 179.228 17.7978 179.786 17.2904C180.346 16.7845 180.952 16.4168 181.617 16.192C182.277 15.9686 182.993 15.8547 183.761 15.8547C184.397 15.8547 184.993 15.9367 185.557 16.1008C186.121 16.2634 186.638 16.5247 187.111 16.8832C187.499 17.1719 187.808 17.4545 188.032 17.7416C188.292 18.0713 188.5 18.4389 188.657 18.8491C188.815 19.2578 188.926 19.6589 188.996 20.0524C189.066 20.4504 189.099 20.8667 189.099 21.3057ZM183.492 25.9439C184.069 25.9439 184.573 25.789 185.001 25.4836C185.431 25.1752 185.792 24.7407 186.089 24.1786C186.311 23.7365 186.471 23.2473 186.565 22.711C186.662 22.1762 186.713 21.608 186.713 21.0155C186.713 19.8792 186.479 18.922 186.022 18.1427C185.471 17.2114 184.691 16.7465 183.686 16.7465C183.318 16.7465 183.023 16.7799 182.799 16.8468C182.572 16.9106 182.327 17.0519 182.056 17.2676C181.614 17.614 181.284 18.0242 181.071 18.4967C180.857 18.9676 180.7 19.4872 180.617 20.0524C180.527 20.6221 180.486 21.2055 180.486 21.8116C180.486 22.9374 180.717 23.8732 181.176 24.6237C181.712 25.5034 182.487 25.9439 183.492 25.9439Z" fill="white"/>
<path d="M195.281 20.8924V21.0307C195.589 21.0307 195.905 21.093 196.222 21.2145C196.548 21.3361 196.835 21.5062 197.083 21.7219C197.611 22.2111 197.873 22.8264 197.873 23.5617C197.873 24.3426 197.619 25.0248 197.113 25.6188C196.891 25.8664 196.625 26.0594 196.306 26.2037C196.065 26.3161 195.748 26.4118 195.356 26.4954C195.248 26.5167 195.11 26.5318 194.931 26.547C194.75 26.5638 194.572 26.5729 194.388 26.5729L192.272 26.5273L191.016 26.5729C191.055 26.2872 191.085 25.9469 191.104 25.5595C191.127 25.1706 191.134 24.8014 191.134 24.4551C191.134 23.9628 191.145 23.1546 191.165 22.0273C191.181 20.9016 191.192 20.303 191.192 20.2316C191.192 19.7819 191.175 19.0891 191.134 18.1578C191.097 17.2265 191.078 16.5262 191.078 16.0552L192.71 16.1023H194.782C195.612 16.1023 196.266 16.2709 196.76 16.6036C197.353 17.0108 197.651 17.6276 197.651 18.451C197.651 19.1317 197.411 19.6968 196.929 20.145C196.504 20.54 195.954 20.7922 195.281 20.8924ZM193.206 20.6311H193.441C193.768 20.6311 194.04 20.6114 194.25 20.5704C194.458 20.5278 194.665 20.4139 194.874 20.2316C195.084 20.0462 195.239 19.8168 195.342 19.5388C195.443 19.2608 195.493 18.9676 195.493 18.6501C195.493 18.4358 195.453 18.1852 195.371 17.9056C195.288 17.6246 195.179 17.4271 195.044 17.3131C194.725 17.0381 194.355 16.8969 193.943 16.8969C193.826 16.8969 193.733 16.8969 193.662 16.8969C193.587 16.8969 193.454 16.9196 193.263 16.9607C193.263 17.1977 193.256 17.5912 193.233 18.1411C193.212 18.6941 193.203 18.9919 193.203 19.0314V20.6311H193.206ZM193.206 25.6963H193.92C194.191 25.6963 194.442 25.6446 194.663 25.5352C194.889 25.4274 195.073 25.2587 195.219 25.0202C195.483 24.6039 195.613 24.1497 195.613 23.6726C195.613 22.9237 195.455 22.3737 195.131 22.0197C194.806 21.6673 194.33 21.491 193.695 21.491C193.617 21.491 193.547 21.491 193.48 21.491C193.366 21.491 193.277 21.491 193.22 21.491L193.204 23.7349L193.206 25.6963Z" fill="white"/>
<path d="M208.931 24.7286L209.122 24.8046L208.802 26.1111C208.387 26.3375 207.937 26.5015 207.446 26.6094C206.958 26.7173 206.459 26.7674 205.95 26.7674C205.495 26.7674 205.106 26.7416 204.781 26.696C204.751 26.6823 204.513 26.6307 204.062 26.538C203.841 26.4879 203.577 26.3861 203.274 26.2402C202.97 26.0913 202.716 25.9455 202.513 25.7996C202.304 25.6584 202.104 25.4836 201.912 25.277C201.759 25.1175 201.598 24.92 201.438 24.6967C201.129 24.2546 200.901 23.7836 200.755 23.2823C200.607 22.7809 200.531 22.237 200.531 21.6567C200.531 20.7057 200.653 19.8837 200.896 19.1986C201.145 18.5119 201.575 17.8768 202.187 17.295C202.706 16.8149 203.323 16.4594 204.039 16.2285C204.754 15.9975 205.495 15.8836 206.268 15.8836C206.773 15.8836 207.288 15.9474 207.805 16.072C208.326 16.2026 208.791 16.385 209.201 16.6189C209.156 16.824 209.103 17.0732 209.039 17.3649C208.975 17.6581 208.922 17.9315 208.872 18.1868H208.671C208.401 17.7766 208.055 17.4484 207.631 17.2053C207.208 16.9592 206.76 16.8362 206.28 16.8362C205.162 16.8362 204.306 17.3223 203.696 18.2946C203.169 19.1454 202.901 20.1937 202.901 21.4425C202.901 22.0259 202.971 22.5849 203.105 23.1243C203.241 23.6606 203.456 24.1376 203.754 24.5508C204.052 24.9671 204.433 25.2892 204.893 25.5201C205.356 25.7495 205.837 25.8665 206.349 25.8665C206.79 25.8665 207.245 25.7586 207.716 25.5505C208.19 25.3424 208.597 25.0674 208.931 24.7286Z" fill="white"/>
<path d="M211.035 26.5713L211.137 23.8048V19.1757L211.05 16.0552C211.212 16.0552 211.436 16.0719 211.721 16.1023C212.002 16.1312 212.17 16.1479 212.23 16.1479C212.604 16.1479 212.976 16.116 213.337 16.0552L213.226 19.4948V20.9213C213.976 19.9976 214.603 19.2031 215.112 18.5361C215.744 17.7142 216.346 16.8877 216.913 16.0567C217.22 16.119 217.485 16.1494 217.709 16.1494C217.96 16.1494 218.227 16.1175 218.515 16.0567L218.496 16.1813L216.149 18.8719C215.937 19.1165 215.774 19.3064 215.658 19.4401C215.611 19.5039 215.345 19.8411 214.863 20.4564L218.656 26.3936V26.5744C218.471 26.5744 218.228 26.5622 217.926 26.5379C217.622 26.5121 217.444 26.5015 217.384 26.5015C217.02 26.5015 216.607 26.5273 216.146 26.5759L214.749 24.2424L213.224 21.769L213.31 26.5759C213.149 26.5759 212.925 26.5638 212.645 26.5394C212.371 26.5136 212.199 26.503 212.142 26.503C211.979 26.503 211.763 26.5151 211.5 26.5394C211.241 26.5607 211.084 26.5713 211.035 26.5713Z" fill="white"/>
<path d="M229.107 26.5744C229.007 26.5516 228.835 26.5349 228.595 26.5182C228.358 26.503 228.116 26.4969 227.879 26.4969L226.833 26.5547L226.733 26.5714C226.733 26.2463 226.761 25.4274 226.806 24.1178C226.825 23.5937 226.835 23.1014 226.835 22.6411V21.2449L226.793 19.1864C226.507 19.5556 226.235 19.9019 225.987 20.2316C225.668 20.6509 225.358 21.0809 225.052 21.5214C224.631 22.1155 224.063 22.9328 223.352 23.9765C222.322 25.4836 221.733 26.3481 221.582 26.5714C221.34 26.5212 221.129 26.4969 220.945 26.4969C220.822 26.4969 220.691 26.5121 220.558 26.5395L220.403 26.5714V23.3339V21.766C220.403 21.2951 220.388 20.7892 220.367 20.2468C220.341 19.7029 220.326 19.2472 220.316 18.8795C220.316 18.6547 220.304 18.4131 220.286 18.1563C220.237 17.5016 220.21 17.0929 220.21 16.9273L220.172 16.0856L221.352 16.1464L222.533 16.0704L222.52 16.3606C222.52 16.5642 222.502 16.8711 222.469 17.2813C222.436 17.6915 222.419 18.0044 222.419 18.2186V19.9232V23.3005C222.764 22.8629 223.185 22.3145 223.675 21.6597C223.906 21.3422 224.143 21.0247 224.386 20.7087C224.923 19.9688 225.458 19.2244 225.99 18.4723C226.519 17.7203 227.062 16.9197 227.623 16.0704C227.862 16.1206 228.079 16.1464 228.271 16.1464C228.464 16.1464 228.679 16.1206 228.922 16.0704L228.878 16.7921V19.2639C228.878 20.7299 228.893 22.0106 228.925 23.1121C228.946 24.212 229.01 25.3681 229.107 26.5744Z" fill="white"/>
<path d="M240.393 26.5744C240.29 26.5516 240.117 26.5349 239.881 26.5182C239.638 26.503 239.401 26.4969 239.165 26.4969L238.119 26.5547L238.018 26.5714C238.018 26.2463 238.044 25.4274 238.091 24.1178C238.114 23.5937 238.121 23.1015 238.121 22.6411V21.245L238.078 19.1864C237.79 19.5556 237.518 19.9019 237.271 20.2316C236.954 20.6509 236.644 21.0809 236.337 21.5215C235.915 22.1155 235.347 22.9328 234.639 23.9765C233.606 25.4836 233.017 26.3481 232.863 26.5714C232.626 26.5213 232.413 26.4969 232.231 26.4969C232.106 26.4969 231.978 26.5121 231.842 26.5395L231.684 26.5714V23.3339V21.7661C231.684 21.2936 231.672 20.7892 231.65 20.2468C231.625 19.7029 231.611 19.2472 231.6 18.8795C231.6 18.6547 231.593 18.4131 231.57 18.1564C231.523 17.5016 231.497 17.0929 231.497 16.9273L231.456 16.0856L232.636 16.1464L233.82 16.0704L233.806 16.3606C233.806 16.5642 233.787 16.8711 233.753 17.2813C233.72 17.6915 233.703 18.0044 233.703 18.2186V19.9232V23.3005C234.048 22.8629 234.469 22.3145 234.959 21.6597C235.193 21.3422 235.427 21.0247 235.67 20.7087C236.21 19.9688 236.742 19.2244 237.271 18.4724C237.803 17.7203 238.346 16.9197 238.905 16.0704C239.148 16.1206 239.36 16.1464 239.554 16.1464C239.749 16.1464 239.963 16.1206 240.203 16.0704L240.15 16.7921V19.2639C240.15 20.7299 240.167 22.0106 240.196 23.1121C240.229 24.212 240.296 25.3682 240.393 26.5744ZM238.231 13.8144C238.038 14.2945 237.746 14.6834 237.352 14.9812C236.959 15.2789 236.485 15.4263 235.928 15.4263C235.376 15.4263 234.907 15.2774 234.515 14.9812C234.121 14.6849 233.823 14.2945 233.62 13.8144L234.078 13.5531C234.482 14.1972 235.105 14.5193 235.939 14.5193C236.343 14.5193 236.699 14.4388 237.014 14.2808C237.327 14.1228 237.579 13.8782 237.772 13.5531L238.231 13.8144Z" fill="white"/>
<path d="M133.467 30.3846C133.661 30.3846 133.919 30.4013 134.247 30.4287C134.574 30.4606 134.762 30.4743 134.811 30.4743C135.246 30.4743 135.672 30.4424 136.094 30.3801L136.757 31.717L137.462 33.1603C137.53 33.3061 137.614 33.4687 137.723 33.6525C137.975 34.1007 138.122 34.3848 138.175 34.5048C138.227 34.6248 138.342 34.8436 138.52 35.1641C138.701 35.4877 138.818 35.6837 138.873 35.743L139.104 35.4346L139.35 34.959C139.417 34.8193 139.598 34.3924 139.896 33.6859C140.13 33.1344 140.308 32.7075 140.445 32.4113L140.977 31.1549L141.298 30.3846L141.47 30.4226C141.63 30.456 141.794 30.4743 141.945 30.4743C142.158 30.4743 142.391 30.4424 142.652 30.3816C142.468 30.7477 142.148 31.3797 141.684 32.273C141.387 32.8579 141.074 33.4778 140.749 34.1371C140.348 34.956 140.013 35.6533 139.755 36.2276C139.661 36.4342 139.518 36.7441 139.337 37.1665C139.126 37.639 139.006 37.9155 138.975 37.9945C138.811 38.3986 138.63 38.8771 138.429 39.4347C138.225 39.9907 138.068 40.483 137.951 40.9053C137.714 40.9053 137.529 40.8962 137.395 40.8871C137.266 40.8719 137.138 40.8628 137.013 40.8537C136.907 40.8537 136.714 40.8704 136.436 40.9053C136.687 40.4632 136.924 40.0135 137.149 39.5547C137.375 39.1005 137.581 38.6553 137.764 38.2254C137.727 38.0917 137.623 37.8623 137.453 37.5311C137.286 37.2045 137.115 36.8702 136.945 36.5345C136.57 35.8159 136.165 35.0699 135.729 34.2936C135.297 33.5218 134.933 32.8792 134.635 32.3642C134.24 31.714 133.854 31.0531 133.467 30.3846Z" fill="white"/>
<path d="M144.682 30.3969C144.844 30.3969 145.068 30.409 145.343 30.4348C145.623 30.4637 145.792 30.4743 145.848 30.4743C146.025 30.4743 146.247 30.4607 146.527 30.4348C146.806 30.406 146.975 30.3969 147.032 30.3969C147.032 30.6764 147.016 31.0623 146.982 31.5667C146.952 32.068 146.932 32.3916 146.932 32.5344V33.1968V34.6127C147.181 34.6127 147.605 34.6218 148.192 34.6431C148.786 34.6674 149.104 34.6735 149.154 34.6735C149.413 34.6735 149.832 34.6674 150.416 34.6431C150.995 34.6218 151.307 34.6127 151.342 34.6127L151.328 32.4448C151.328 32.1379 151.323 31.8857 151.31 31.6928C151.263 30.9134 151.241 30.4804 151.241 30.3999C151.405 30.3999 151.628 30.412 151.917 30.4394C152.201 30.4667 152.372 30.4774 152.428 30.4774C152.576 30.4774 152.794 30.4637 153.082 30.4394C153.372 30.409 153.556 30.3999 153.634 30.3999C153.634 30.6855 153.623 30.9438 153.604 31.1853C153.54 31.9936 153.504 32.4296 153.504 32.4888L153.463 36.0651C153.463 36.7336 153.472 37.3382 153.493 37.8806C153.56 39.7644 153.59 40.7747 153.59 40.9084C153.426 40.9084 153.209 40.8917 152.934 40.8659C152.663 40.8401 152.496 40.8294 152.436 40.8294C152.255 40.8294 152.007 40.8431 151.695 40.8659C151.38 40.8948 151.2 40.9084 151.153 40.9084L151.241 38.7861L151.328 36.5725V35.8372L149.129 35.7916L146.932 35.8372V37.7013C146.932 38.1191 146.953 38.7055 146.982 39.456C147.016 40.2096 147.032 40.6942 147.032 40.9115C146.879 40.9115 146.665 40.8948 146.391 40.8704C146.12 40.8431 145.952 40.8325 145.894 40.8325C145.713 40.8325 145.467 40.8461 145.166 40.8704C144.86 40.8978 144.682 40.9115 144.623 40.9115C144.623 40.3357 144.643 39.6353 144.682 38.8043C144.769 36.9311 144.81 35.7506 144.81 35.269C144.81 34.596 144.804 33.9822 144.784 33.4429C144.713 31.5348 144.682 30.5169 144.682 30.3969Z" fill="white"/>
<path d="M165.446 40.9084C165.342 40.8826 165.172 40.8659 164.931 40.8507C164.691 40.8325 164.456 40.8264 164.214 40.8264L163.174 40.8826L163.073 40.8993C163.073 40.5742 163.097 39.7553 163.147 38.4473C163.167 37.9216 163.177 37.4324 163.177 36.9721V35.5759L163.133 33.5174C162.842 33.885 162.572 34.2314 162.324 34.5626C162.009 34.9773 161.697 35.4134 161.39 35.8539C160.969 36.448 160.4 37.2668 159.69 38.3105C158.661 39.8115 158.07 40.6821 157.918 40.9008C157.678 40.8522 157.467 40.8279 157.283 40.8279C157.158 40.8279 157.029 40.8431 156.897 40.8735L156.741 40.9008V37.6649V36.0985C156.741 35.6276 156.726 35.1171 156.703 34.5778C156.68 34.0385 156.663 33.5827 156.653 33.2135C156.653 32.9887 156.647 32.7425 156.627 32.4888C156.577 31.8356 156.555 31.4254 156.555 31.2598L156.509 30.4151L157.691 30.4758L158.873 30.3999L158.856 30.6916C158.856 30.8952 158.84 31.202 158.809 31.6092C158.772 32.0209 158.758 32.3324 158.758 32.545V34.2466V37.6284C159.101 37.1878 159.522 36.6409 160.017 35.9846C160.242 35.6701 160.482 35.3526 160.724 35.032C161.265 34.2967 161.797 33.5508 162.327 32.7972C162.856 32.0437 163.401 31.2461 163.958 30.3969C164.201 30.447 164.415 30.4728 164.607 30.4728C164.803 30.4728 165.019 30.447 165.256 30.3969L165.219 31.1185V33.5903C165.219 35.0563 165.233 36.3416 165.265 37.4385C165.283 38.5415 165.349 39.6976 165.446 40.9084Z" fill="white"/>
<path d="M172.727 35.225V35.3617C173.036 35.3617 173.349 35.424 173.672 35.5455C173.995 35.6671 174.278 35.8342 174.527 36.0515C175.058 36.5406 175.324 37.159 175.324 37.8958C175.324 38.6736 175.067 39.3588 174.561 39.9528C174.341 40.199 174.069 40.3934 173.754 40.5347C173.514 40.6487 173.195 40.7474 172.801 40.8279C172.696 40.8477 172.556 40.8644 172.378 40.8796C172.199 40.8978 172.021 40.9008 171.837 40.9008L169.718 40.8583L168.465 40.9008C168.502 40.6183 168.532 40.2795 168.552 39.8921C168.574 39.5001 168.581 39.134 168.581 38.7846C168.581 38.2923 168.59 37.4871 168.611 36.3583C168.633 35.2326 168.641 34.634 168.641 34.5611C168.641 34.1099 168.623 33.4201 168.583 32.4873C168.546 31.556 168.527 30.8557 168.527 30.3847L170.153 30.4303H172.229C173.058 30.4303 173.717 30.5959 174.204 30.9316C174.802 31.3433 175.1 31.9586 175.1 32.7775C175.1 33.4596 174.859 34.0263 174.378 34.4745C173.946 34.871 173.397 35.1202 172.727 35.225ZM170.655 34.9591H170.886C171.215 34.9591 171.488 34.9394 171.694 34.8999C171.901 34.8604 172.114 34.7434 172.322 34.5611C172.529 34.3773 172.684 34.1463 172.79 33.8714C172.889 33.5888 172.941 33.2956 172.941 32.978C172.941 32.7638 172.897 32.5147 172.817 32.2336C172.733 31.951 172.624 31.7566 172.49 31.6426C172.169 31.3646 171.804 31.2294 171.388 31.2294C171.272 31.2294 171.18 31.2294 171.107 31.2294C171.031 31.2294 170.9 31.2522 170.706 31.2902C170.706 31.5241 170.696 31.9207 170.682 32.4721C170.661 33.0251 170.652 33.3244 170.652 33.3624V34.9591H170.655ZM170.655 40.0273H171.368C171.64 40.0273 171.886 39.9756 172.111 39.8662C172.333 39.7614 172.519 39.5852 172.666 39.3527C172.928 38.9365 173.058 38.4837 173.058 37.9991C173.058 37.2532 172.897 36.7017 172.576 36.3507C172.249 35.9968 171.773 35.8175 171.138 35.8175C171.063 35.8175 170.99 35.8175 170.926 35.8175C170.81 35.8175 170.723 35.8175 170.665 35.8175L170.651 38.0644V40.0273H170.655Z" fill="white"/>
<path d="M177.902 30.5989V30.4014C178.15 30.4014 178.526 30.4166 179.038 30.4469C179.545 30.4773 179.927 30.491 180.188 30.491C180.646 30.491 181.269 30.4743 182.043 30.4469C182.819 30.415 183.284 30.4014 183.438 30.4014C183.402 30.5943 183.382 30.8146 183.382 31.0592C183.382 31.1215 183.385 31.1929 183.388 31.2704C183.395 31.3478 183.402 31.436 183.413 31.5393L183.442 31.7231C183.077 31.7231 182.528 31.6942 181.801 31.638C181.069 31.5818 180.523 31.5514 180.158 31.5514L180.101 33.1512V34.8542L183.388 34.7297C183.365 34.8937 183.355 35.0366 183.338 35.1551C183.324 35.269 183.312 35.3708 183.312 35.4498C183.312 35.585 183.324 35.6929 183.338 35.7749C183.355 35.8569 183.368 35.942 183.388 36.0347C183.11 36.0347 182.686 36.0104 182.119 35.9648C181.552 35.9207 181.118 35.8964 180.822 35.8964H180.112L180.101 37.8471V39.7781C181.12 39.7781 182.236 39.7112 183.443 39.5791C183.408 39.7735 183.388 39.9938 183.388 40.2415C183.388 40.3007 183.391 40.3721 183.393 40.4511C183.401 40.5255 183.408 40.6152 183.419 40.7185L183.448 40.8993C183.158 40.8993 182.726 40.8826 182.147 40.8567C181.575 40.8264 181.136 40.8127 180.838 40.8127L179.14 40.8567L177.856 40.8993L177.915 40.0272L177.987 37.1574V34.8223V33.0251C177.987 32.6362 177.982 32.3399 177.976 32.1348C177.92 31.1215 177.902 30.611 177.902 30.5989Z" fill="white"/>
<path d="M185.942 30.4014L187.279 30.447C187.489 30.447 187.838 30.4348 188.325 30.4151C188.809 30.3923 189.068 30.3832 189.096 30.3832C189.354 30.3832 189.611 30.3847 189.873 30.3908C190.136 30.3984 190.391 30.4288 190.65 30.491C191.248 30.6339 191.721 30.9331 192.078 31.3874C192.433 31.8462 192.613 32.3931 192.613 33.0373C192.613 33.5128 192.556 33.9291 192.447 34.2891C192.339 34.6522 192.135 34.9895 191.848 35.304C191.56 35.6154 191.252 35.8433 190.927 35.9846C190.696 36.0864 190.331 36.1851 189.831 36.2763C189.671 36.3067 189.457 36.3264 189.206 36.3386C188.949 36.3492 188.811 36.3538 188.782 36.3538H188.146C188.146 36.7093 188.152 37.0693 188.162 37.4279C188.171 37.7864 188.182 38.1434 188.191 38.4868C188.191 38.7648 188.208 39.172 188.233 39.7052C188.263 40.2385 188.275 40.635 188.275 40.9039C188.134 40.9039 187.917 40.8872 187.629 40.8613C187.341 40.8355 187.158 40.8234 187.081 40.8234C186.907 40.8234 186.682 40.8386 186.401 40.8613C186.123 40.8887 185.955 40.9039 185.896 40.9039L185.996 40.0881C185.996 39.8419 186.006 39.5183 186.017 39.1188C186.032 38.7207 186.042 38.4853 186.042 38.4123V36.0803C186.042 35.6078 186.032 34.8224 186.017 33.7301C186.006 32.6301 185.996 32.0437 185.996 31.9617V31.5758C186 31.1944 185.982 30.801 185.942 30.4014ZM188.205 31.2567L188.189 33.1117V34.4031L188.146 35.5121C188.356 35.5121 188.52 35.503 188.636 35.4969C188.752 35.4878 188.905 35.4574 189.099 35.4012C189.541 35.2675 189.86 35.0001 190.063 34.6067C190.238 34.2679 190.324 33.8379 190.324 33.3153C190.324 32.9355 190.277 32.5906 190.18 32.2837C190.084 31.9784 189.916 31.7201 189.675 31.5165C189.55 31.4178 189.414 31.3479 189.272 31.3084C189.129 31.2735 188.945 31.2552 188.723 31.2552C188.631 31.2552 188.536 31.2552 188.45 31.2552C188.365 31.2552 188.279 31.2567 188.205 31.2567Z" fill="white"/>
<path d="M202.774 39.058L202.961 39.1385L202.645 40.4435C202.23 40.6653 201.782 40.8324 201.291 40.9388C200.801 41.0466 200.303 41.0983 199.79 41.0983C199.341 41.0983 198.948 41.0709 198.625 41.0208C198.595 41.0117 198.357 40.9615 197.903 40.8689C197.685 40.8157 197.421 40.7154 197.117 40.5696C196.815 40.4207 196.561 40.2749 196.354 40.1305C196.146 39.9877 195.947 39.81 195.756 39.6079C195.604 39.4454 195.445 39.2494 195.281 39.023C194.971 38.5839 194.745 38.1145 194.598 37.6101C194.449 37.1088 194.372 36.5649 194.372 35.983C194.372 35.0305 194.495 34.2116 194.742 33.5279C194.988 32.8428 195.416 32.2077 196.032 31.6259C196.547 31.1458 197.163 30.7857 197.882 30.5578C198.598 30.3269 199.339 30.2099 200.111 30.2099C200.615 30.2099 201.134 30.2768 201.651 30.4029C202.17 30.532 202.632 30.7143 203.047 30.9468C202.998 31.1534 202.948 31.4025 202.884 31.6942C202.819 31.9829 202.767 32.2579 202.717 32.5131H202.515C202.247 32.1014 201.897 31.7747 201.475 31.5317C201.052 31.2855 200.604 31.1655 200.122 31.1655C199.008 31.1655 198.146 31.6502 197.541 32.6225C197.012 33.4732 196.745 34.52 196.745 35.7703C196.745 36.3537 196.815 36.9128 196.949 37.4506C197.085 37.9869 197.303 38.4654 197.598 38.8756C197.896 39.2889 198.275 39.6125 198.737 39.8449C199.198 40.0698 199.683 40.1928 200.192 40.1928C200.637 40.1928 201.095 40.0865 201.562 39.8753C202.034 39.6748 202.439 39.3983 202.774 39.058Z" fill="white"/>
<path d="M214.349 40.9084C214.245 40.8826 214.07 40.8659 213.832 40.8507C213.591 40.8325 213.354 40.8264 213.116 40.8264L212.073 40.8826L211.971 40.8993C211.971 40.5742 211.996 39.7553 212.045 38.4473C212.066 37.9216 212.075 37.4324 212.075 36.9721V35.5759L212.031 33.5174C211.745 33.885 211.473 34.2314 211.228 34.5626C210.908 34.9773 210.598 35.4134 210.288 35.8539C209.867 36.448 209.3 37.2668 208.59 38.3105C207.559 39.8115 206.971 40.6821 206.819 40.9008C206.578 40.8522 206.365 40.8279 206.184 40.8279C206.057 40.8279 205.929 40.8431 205.798 40.8735L205.638 40.9008V37.6649V36.0985C205.638 35.6276 205.624 35.1171 205.604 34.5778C205.581 34.0385 205.565 33.5827 205.557 33.2135C205.557 32.9887 205.545 32.7425 205.527 32.4888C205.477 31.8356 205.452 31.4254 205.452 31.2598L205.41 30.4151L206.592 30.4758L207.774 30.3999L207.757 30.6916C207.757 30.8952 207.743 31.202 207.707 31.6092C207.674 32.0209 207.658 32.3324 207.658 32.545V34.2466V37.6284C208.004 37.1878 208.424 36.6409 208.916 35.9846C209.146 35.6701 209.383 35.3526 209.625 35.032C210.163 34.2967 210.699 33.5508 211.226 32.7972C211.758 32.0437 212.302 31.2461 212.861 30.3969C213.103 30.447 213.318 30.4728 213.507 30.4728C213.702 30.4728 213.919 30.447 214.155 30.3969L214.114 31.1185V33.5903C214.114 35.0563 214.131 36.3416 214.161 37.4385C214.181 38.5415 214.248 39.6976 214.349 40.9084Z" fill="white"/>
<path d="M221.382 31.5363L221.352 32.6574L221.31 36.4814L221.352 38.4503C221.352 38.8271 221.36 39.3087 221.374 39.8936C221.392 40.4785 221.398 40.8142 221.398 40.9084C221.237 40.9084 221.012 40.8917 220.726 40.8659C220.443 40.84 220.276 40.8294 220.217 40.8294C220.042 40.8294 219.819 40.8431 219.539 40.8659C219.262 40.8947 219.092 40.9084 219.034 40.9084C219.034 40.6198 219.055 40.2202 219.098 39.7097C219.139 39.1977 219.166 38.8696 219.166 38.7268C219.166 37.9201 219.172 36.8961 219.189 35.6549C219.202 34.4167 219.211 33.7057 219.211 33.5204L219.169 31.5393C219.021 31.5393 218.783 31.5499 218.452 31.5712C218.121 31.5925 217.941 31.6031 217.913 31.6031L216.515 31.755C216.562 31.5742 216.588 31.3509 216.588 31.0926C216.588 31.0091 216.588 30.9331 216.588 30.8496C216.568 30.725 216.561 30.6384 216.561 30.5867L216.515 30.4044L217.596 30.4348C217.897 30.4348 218.398 30.447 219.095 30.4667C219.799 30.4895 220.173 30.4986 220.22 30.4986H221.705C222.05 30.4986 222.329 30.4925 222.54 30.4758C223.4 30.4333 223.865 30.4059 223.936 30.4059C223.906 30.5761 223.894 30.6931 223.888 30.7538C223.881 30.8101 223.879 30.8982 223.879 31.0212C223.879 31.2977 223.902 31.5438 223.936 31.7565C223.048 31.6077 222.198 31.5363 221.382 31.5363Z" fill="white"/>
<path d="M226.279 30.5989V30.4014C226.527 30.4014 226.907 30.4166 227.416 30.4469C227.922 30.4773 228.307 30.491 228.567 30.491C229.027 30.491 229.643 30.4743 230.42 30.4469C231.199 30.415 231.663 30.4014 231.817 30.4014C231.777 30.5943 231.755 30.8146 231.755 31.0592C231.755 31.1215 231.761 31.1929 231.765 31.2704C231.769 31.3478 231.777 31.436 231.789 31.5393L231.819 31.7231C231.453 31.7231 230.907 31.6942 230.175 31.638C229.447 31.5818 228.897 31.5514 228.532 31.5514L228.477 33.1512V34.8542L231.762 34.7297C231.741 34.8937 231.73 35.0366 231.714 35.1551C231.7 35.269 231.691 35.3708 231.691 35.4498C231.691 35.585 231.7 35.6929 231.714 35.7749C231.73 35.8569 231.744 35.942 231.762 36.0347C231.486 36.0347 231.061 36.0104 230.496 35.9648C229.928 35.9207 229.494 35.8964 229.198 35.8964H228.494L228.477 37.8471V39.7781C229.499 39.7781 230.613 39.7112 231.822 39.5791C231.782 39.7735 231.762 39.9938 231.762 40.2415C231.762 40.3007 231.767 40.3721 231.771 40.4511C231.775 40.5255 231.782 40.6152 231.795 40.7185L231.825 40.8993C231.537 40.8993 231.102 40.8826 230.53 40.8567C229.953 40.8264 229.515 40.8127 229.217 40.8127L227.519 40.8567L226.238 40.8993L226.294 40.0272L226.368 37.1574V34.8223V33.0251C226.368 32.6362 226.361 32.3399 226.352 32.1348C226.301 31.1215 226.279 30.611 226.279 30.5989Z" fill="white"/>
<path d="M238.443 31.5363L238.415 32.6574L238.373 36.4814L238.415 38.4503C238.415 38.8271 238.425 39.3087 238.438 39.8936C238.455 40.4785 238.46 40.8142 238.46 40.9084C238.298 40.9084 238.074 40.8917 237.792 40.8659C237.505 40.84 237.338 40.8294 237.28 40.8294C237.107 40.8294 236.882 40.8431 236.602 40.8659C236.324 40.8947 236.156 40.9084 236.097 40.9084C236.097 40.6198 236.122 40.2202 236.163 39.7097C236.207 39.1977 236.229 38.8696 236.229 38.7268C236.229 37.9201 236.236 36.8961 236.25 35.6549C236.267 34.4167 236.273 33.7057 236.273 33.5204L236.231 31.5393C236.086 31.5393 235.846 31.5499 235.517 31.5712C235.191 31.5925 235.007 31.6031 234.977 31.6031L233.581 31.755C233.625 31.5742 233.65 31.3509 233.65 31.0926C233.65 31.0091 233.65 30.9331 233.65 30.8496C233.63 30.725 233.62 30.6384 233.62 30.5867L233.581 30.4044L234.659 30.4348C234.957 30.4348 235.459 30.447 236.162 30.4667C236.862 30.4895 237.235 30.4986 237.282 30.4986H238.767C239.115 30.4986 239.392 30.4925 239.603 30.4758C240.457 30.4333 240.926 30.4059 241 30.4059C240.97 30.5761 240.956 30.6931 240.95 30.7538C240.944 30.8101 240.942 30.8982 240.942 31.0212C240.942 31.2977 240.962 31.5438 241 31.7565C240.112 31.6077 239.26 31.5363 238.443 31.5363Z" fill="white"/>
<path d="M134.096 55.256L134.139 54.3065L134.19 52.9286L134.232 50.7439C134.232 50.4841 134.215 50.0891 134.19 49.5665C134.163 49.0378 134.149 48.6413 134.149 48.3693L134.27 48.3861L135.244 48.4301C135.341 48.4301 135.498 48.418 135.712 48.3997C135.926 48.3785 136.091 48.3678 136.197 48.3678L136.091 50.2183C136.091 50.5327 136.08 51.0007 136.063 51.6129C136.044 52.2312 136.034 52.5472 136.034 52.5655C136.599 51.9046 137.131 51.2498 137.624 50.589C138.119 49.9311 138.644 49.1897 139.199 48.3678C139.318 48.3678 139.432 48.3739 139.551 48.3785C139.668 48.38 139.786 48.3845 139.904 48.3845H140.121C140.182 48.3739 140.23 48.3678 140.268 48.3678L140.173 50.2183C140.173 50.5343 140.167 51.066 140.147 51.8104C140.13 52.5533 140.121 52.959 140.121 53.0136C140.121 53.512 140.124 53.9115 140.134 54.2093C140.141 54.5071 140.171 54.858 140.227 55.2576C140.074 55.2576 139.864 55.2454 139.602 55.212C139.335 55.1801 139.177 55.1649 139.127 55.1649C138.99 55.1649 138.809 55.1816 138.578 55.212C138.347 55.2454 138.213 55.2576 138.172 55.2576L138.207 54.305L138.263 52.924V50.9764C137.681 51.6372 137.127 52.3194 136.606 53.0334C136.083 53.7459 135.572 54.4843 135.085 55.2591C134.968 55.2591 134.801 55.2591 134.581 55.2591C134.363 55.2591 134.203 55.256 134.096 55.256Z" fill="white"/>
<path d="M148.76 55.2363C148.623 55.2363 148.512 55.2317 148.419 55.2226C148.044 55.1831 147.847 55.1634 147.822 55.1634C147.621 55.1634 147.437 55.174 147.274 55.1922C147.114 55.215 146.987 55.2257 146.893 55.2363C146.893 54.539 146.838 53.6669 146.732 52.6095C146.674 52.093 146.618 51.5704 146.571 51.0462C146.229 51.6965 145.899 52.3649 145.589 53.0562C145.275 53.749 144.968 54.4767 144.669 55.2393C144.612 55.2393 144.523 55.2393 144.418 55.2393C144.361 55.2393 144.314 55.2393 144.281 55.2393C143.954 54.4402 143.665 53.7626 143.417 53.2127C143.143 52.611 142.796 51.9092 142.39 51.107C142.273 51.8985 142.192 52.6202 142.139 53.2658C142.089 53.91 142.065 54.5633 142.065 55.2196L141.561 55.1801L141.099 55.2393C141.426 53.2552 141.76 50.9657 142.101 48.3693C142.16 48.3906 142.217 48.4058 142.276 48.4149C142.333 48.4256 142.41 48.4316 142.5 48.4316C142.634 48.4316 142.774 48.4088 142.928 48.3693C143.611 49.8628 144.294 51.3516 144.978 52.8329C145.343 52.1051 145.686 51.4078 146.004 50.7378C146.363 49.9706 146.717 49.1867 147.067 48.3678C147.193 48.4073 147.325 48.4301 147.467 48.4301C147.541 48.4301 147.622 48.4195 147.71 48.4043C147.797 48.3891 147.862 48.3769 147.906 48.3678C148.158 50.8411 148.441 53.1321 148.76 55.2363Z" fill="white"/>
<path d="M155.293 51.8241H151.419L151.472 52.6429C151.472 52.8541 151.539 53.1002 151.676 53.3919C151.809 53.6821 151.957 53.9069 152.124 54.0574C152.291 54.2108 152.466 54.3232 152.659 54.3916C152.857 54.4569 153.071 54.4873 153.313 54.4873C153.59 54.4873 153.868 54.4311 154.135 54.3171C154.403 54.2047 154.652 54.0422 154.885 53.8431L155.047 53.9708L154.749 54.7744C154.179 55.2029 153.534 55.4171 152.827 55.4171C152.254 55.4171 151.763 55.3411 151.362 55.1907C150.96 55.0342 150.582 54.7516 150.232 54.3308C149.945 53.9966 149.741 53.6031 149.627 53.1504C149.51 52.6961 149.452 52.1978 149.452 51.6539C149.452 50.6315 149.725 49.7974 150.279 49.1533C150.832 48.5091 151.579 48.1855 152.529 48.1855C153.517 48.1855 154.239 48.5334 154.698 49.2307C155.094 49.8308 155.293 50.6923 155.293 51.8241ZM151.419 51.1328H153.503C153.494 51.104 153.489 51.0766 153.489 51.0402C153.489 51.0083 153.489 50.9855 153.489 50.9748C153.489 50.8973 153.489 50.8411 153.489 50.8062C153.489 50.3459 153.436 49.9402 153.327 49.5862C153.165 49.0621 152.907 48.7962 152.556 48.7962C152.121 48.7962 151.812 49.0849 151.623 49.6683C151.487 50.0815 151.419 50.5707 151.419 51.1328Z" fill="white"/>
<path d="M158.347 51.2209L159.417 51.265L160.526 51.2209V50.7348C160.526 50.478 160.516 50.0815 160.496 49.5604C160.476 49.0348 160.469 48.6413 160.469 48.3693L160.59 48.3861L161.566 48.4301C161.665 48.4301 161.824 48.418 162.039 48.3997C162.257 48.3785 162.421 48.3678 162.527 48.3678L162.435 50.2183C162.435 50.5343 162.425 51.066 162.41 51.8028C162.387 52.5442 162.38 52.9453 162.38 53.0015C162.38 53.4998 162.384 53.8963 162.394 54.1941C162.405 54.4888 162.435 54.8352 162.49 55.2378C162.336 55.2378 162.126 55.2257 161.862 55.2044C161.598 55.1755 161.441 55.1679 161.386 55.1679C161.253 55.1679 161.071 55.1801 160.843 55.2044C160.614 55.2287 160.475 55.2378 160.43 55.2378L160.472 54.2944L160.526 52.9149V52.1006L159.441 52.055L158.344 52.1006V53.003C158.344 53.4998 158.348 53.8994 158.357 54.1971C158.366 54.4873 158.397 54.8367 158.45 55.2424C158.301 55.2424 158.092 55.2287 157.825 55.2074C157.561 55.1801 157.402 55.171 157.349 55.171C157.212 55.171 157.031 55.1816 156.805 55.2074C156.577 55.2317 156.436 55.2424 156.393 55.2424L156.432 54.2959L156.487 52.9225L156.526 50.7394C156.526 50.4826 156.509 50.0891 156.479 49.5635C156.449 49.0378 156.432 48.6459 156.432 48.3739L156.556 48.3906L157.533 48.4347C157.628 48.4347 157.789 48.424 158.006 48.4028C158.222 48.383 158.386 48.3709 158.494 48.3709L158.386 50.2213L158.347 51.2209Z" fill="white"/>
<path d="M163.887 55.256L163.927 54.3065L163.98 52.9286L164.023 50.7439C164.023 50.4841 164.005 50.0891 163.98 49.5665C163.953 49.0378 163.943 48.6413 163.943 48.3693L164.062 48.3861L165.034 48.4301C165.132 48.4301 165.29 48.418 165.506 48.3997C165.72 48.3785 165.882 48.3678 165.988 48.3678L165.882 50.2183C165.882 50.5327 165.874 51.0007 165.854 51.6129C165.836 52.2312 165.824 52.5472 165.824 52.5655C166.391 51.9046 166.923 51.2498 167.419 50.589C167.911 49.9311 168.437 49.1897 168.994 48.3678C169.111 48.3678 169.23 48.3739 169.344 48.3785C169.464 48.38 169.581 48.3845 169.698 48.3845H169.916C169.978 48.3739 170.027 48.3678 170.063 48.3678L169.97 50.2183C169.97 50.5343 169.963 51.066 169.943 51.8104C169.923 52.5533 169.916 52.959 169.916 53.0136C169.916 53.512 169.919 53.9115 169.929 54.2093C169.938 54.5071 169.968 54.858 170.023 55.2576C169.869 55.2576 169.661 55.2454 169.397 55.212C169.129 55.1801 168.974 55.1649 168.919 55.1649C168.784 55.1649 168.606 55.1816 168.376 55.212C168.148 55.2454 168.01 55.2576 167.963 55.2576L168.004 54.305L168.06 52.924V50.9764C167.478 51.6372 166.926 52.3194 166.403 53.0334C165.879 53.7459 165.369 54.4843 164.875 55.2591C164.764 55.2591 164.596 55.2591 164.375 55.2591C164.155 55.2591 163.995 55.256 163.887 55.256Z" fill="white"/>
<path d="M182.132 53.392L182.298 53.471L182.017 54.7715C181.644 54.9978 181.235 55.1649 180.798 55.2713C180.355 55.3776 179.907 55.4308 179.448 55.4308C179.041 55.4308 178.693 55.4019 178.398 55.3533C178.373 55.3442 178.159 55.2926 177.754 55.1984C177.554 55.1482 177.317 55.0464 177.046 54.9006C176.773 54.7502 176.543 54.6059 176.358 54.4615C176.169 54.3202 175.991 54.144 175.82 53.9404C175.682 53.7809 175.539 53.5834 175.394 53.3525C175.116 52.918 174.907 52.447 174.775 51.9426C174.641 51.4413 174.571 50.8974 174.571 50.314C174.571 49.3645 174.681 48.5426 174.902 47.8589C175.121 47.1753 175.509 46.5402 176.062 45.9569C176.527 45.4783 177.085 45.1182 177.731 44.8888C178.37 44.6594 179.04 44.5424 179.732 44.5424C180.188 44.5424 180.65 44.6047 181.12 44.7354C181.585 44.863 182.006 45.0438 182.377 45.2762C182.337 45.4859 182.287 45.7305 182.228 46.0222C182.174 46.3124 182.122 46.5873 182.08 46.8426H181.899C181.654 46.4339 181.344 46.1073 180.965 45.8596C180.584 45.6165 180.178 45.495 179.747 45.495C178.748 45.495 177.97 45.9796 177.427 46.955C176.948 47.8027 176.714 48.851 176.714 50.0998C176.714 50.6817 176.773 51.2453 176.892 51.7786C177.015 52.3164 177.21 52.7904 177.477 53.2051C177.745 53.6184 178.087 53.942 178.502 54.1729C178.92 54.4038 179.355 54.5208 179.814 54.5208C180.208 54.5208 180.619 54.416 181.043 54.2033C181.47 54.0042 181.832 53.7277 182.132 53.392Z" fill="white"/>
<path d="M183.379 55.3472C183.165 55.3472 182.98 55.2636 182.82 55.098C182.669 54.937 182.591 54.741 182.591 54.5071C182.591 54.2837 182.672 54.0832 182.83 53.9146C182.983 53.7505 183.17 53.6654 183.379 53.6654C183.592 53.6654 183.777 53.749 183.938 53.9115C184.098 54.0726 184.179 54.2716 184.179 54.5071C184.179 54.7395 184.101 54.9355 183.945 55.098C183.794 55.2636 183.606 55.3472 183.379 55.3472Z" fill="white"/>
<path d="M187.564 50.1651C187.448 50.1651 187.321 50.1651 187.192 50.1651C187.064 50.1651 186.93 50.1651 186.793 50.1651H186.666V52.0246C186.666 52.4409 186.682 53.0273 186.71 53.7808C186.74 54.5329 186.752 55.016 186.752 55.2317C186.619 55.2317 186.431 55.2196 186.19 55.1937C185.95 55.1664 185.803 55.1558 185.756 55.1558C185.597 55.1558 185.383 55.1694 185.119 55.1937C184.856 55.2226 184.695 55.2317 184.645 55.2317C184.645 54.659 184.665 53.9556 184.695 53.1261C184.774 51.2528 184.809 50.077 184.809 49.5954C184.809 48.9208 184.801 48.3101 184.785 47.7692C184.725 45.8626 184.695 44.8523 184.695 44.7308C184.842 44.7308 185.032 44.7429 185.274 44.7642C185.52 44.7961 185.664 44.8007 185.719 44.8007C185.87 44.8007 186.066 44.7915 186.311 44.7642C186.555 44.7414 186.7 44.7308 186.752 44.7308C186.752 45.0073 186.737 45.3947 186.71 45.8975C186.68 46.4004 186.666 46.7225 186.666 46.8638V47.5277V48.9421C186.816 48.9421 186.976 48.9421 187.134 48.9421C187.295 48.9421 187.456 48.9421 187.617 48.9421C187.71 48.3587 187.87 47.8072 188.099 47.2876C188.327 46.7681 188.618 46.3108 188.975 45.9264C189.428 45.4357 189.936 45.0741 190.491 44.8508C191.045 44.629 191.644 44.5135 192.285 44.5135C192.817 44.5135 193.323 44.5986 193.789 44.7596C194.26 44.9267 194.689 45.185 195.078 45.5451C195.399 45.8307 195.66 46.1269 195.87 46.4384C196.076 46.7438 196.243 47.0947 196.373 47.4821C196.5 47.8695 196.593 48.2812 196.65 48.7112C196.708 49.1396 196.739 49.5619 196.739 49.9691C196.739 50.7606 196.623 51.5111 196.38 52.2267C196.138 52.9453 195.783 53.553 195.319 54.0695C194.854 54.5784 194.347 54.9476 193.803 55.1755C193.259 55.3988 192.653 55.5143 191.995 55.5143C191.393 55.5143 190.797 55.3867 190.207 55.1314C189.617 54.8701 189.115 54.4934 188.717 53.989C188.313 53.4876 188.021 52.924 187.84 52.2966C187.657 51.6646 187.564 50.9566 187.564 50.1651ZM192.055 54.6012C192.511 54.6012 192.915 54.4508 193.261 54.1424C193.607 53.8355 193.899 53.4026 194.133 52.8389C194.311 52.3877 194.439 51.8985 194.515 51.3713C194.593 50.8426 194.63 50.279 194.63 49.6789C194.63 48.5486 194.442 47.596 194.069 46.8015C193.629 45.8778 193.01 45.4068 192.206 45.4068C191.918 45.4068 191.687 45.4402 191.502 45.5025C191.319 45.5709 191.124 45.7137 190.913 45.9294C190.763 46.0814 190.609 46.2682 190.465 46.4946C190.312 46.7194 190.197 46.9595 190.103 47.2026C189.943 47.631 189.826 48.1414 189.753 48.7309C189.679 49.3189 189.646 49.9022 189.646 50.472C189.646 51.5856 189.832 52.5275 190.207 53.2841C190.635 54.1652 191.254 54.6012 192.055 54.6012Z" fill="white"/>
<path d="M197.253 55.3472C197.039 55.3472 196.852 55.2636 196.698 55.098C196.546 54.937 196.467 54.741 196.467 54.5071C196.467 54.2837 196.546 54.0832 196.701 53.9146C196.856 53.7505 197.04 53.6654 197.253 53.6654C197.465 53.6654 197.651 53.749 197.81 53.9115C197.969 54.0726 198.053 54.2716 198.053 54.5071C198.053 54.7395 197.976 54.9355 197.822 55.098C197.669 55.2636 197.478 55.3472 197.253 55.3472Z" fill="white"/>
<path d="M206.744 49.5529V49.6911C207.052 49.6911 207.366 49.7519 207.688 49.8734C208.009 49.998 208.294 50.1621 208.544 50.3809C209.074 50.8701 209.341 51.4853 209.341 52.2237C209.341 53.0015 209.084 53.6867 208.575 54.2807C208.356 54.5253 208.088 54.7213 207.768 54.8641C207.529 54.9735 207.214 55.0738 206.819 55.1528C206.713 55.1756 206.57 55.1892 206.392 55.2075C206.217 55.2227 206.037 55.2318 205.853 55.2318L203.734 55.1877L202.481 55.2318C202.518 54.9446 202.548 54.6059 202.569 54.2169C202.589 53.8265 202.598 53.4588 202.598 53.1109C202.598 52.6187 202.608 51.8105 202.627 50.6817C202.649 49.5605 202.657 48.9589 202.657 48.8875C202.657 48.4362 202.633 47.7465 202.598 46.8122C202.562 45.8809 202.541 45.1836 202.541 44.7096L204.169 44.7536H206.247C207.074 44.7536 207.731 44.9238 208.219 45.2565C208.815 45.6682 209.113 46.282 209.113 47.1054C209.113 47.7845 208.876 48.3512 208.394 48.7963C207.962 49.2019 207.416 49.4511 206.744 49.5529ZM204.665 49.2901H204.901C205.231 49.2901 205.502 49.2718 205.711 49.2308C205.919 49.1913 206.131 49.0774 206.338 48.8935C206.546 48.7082 206.702 48.4773 206.803 48.1992C206.904 47.9243 206.957 47.628 206.957 47.3105C206.957 47.0963 206.916 46.8456 206.831 46.5691C206.747 46.2835 206.64 46.0905 206.505 45.9751C206.187 45.6955 205.819 45.5603 205.403 45.5603C205.291 45.5603 205.194 45.5603 205.122 45.5603C205.052 45.5603 204.913 45.5831 204.724 45.6226C204.724 45.8581 204.715 46.2546 204.694 46.8016C204.675 47.3576 204.664 47.6554 204.664 47.6949V49.2901H204.665ZM204.665 54.3613H205.38C205.652 54.3613 205.9 54.3051 206.126 54.1987C206.348 54.0893 206.533 53.9161 206.68 53.6822C206.944 53.2659 207.075 52.8147 207.075 52.3316C207.075 51.5841 206.911 51.0341 206.59 50.6817C206.268 50.3277 205.79 50.1515 205.154 50.1515C205.079 50.1515 205.006 50.1515 204.939 50.1515C204.825 50.1515 204.738 50.1515 204.681 50.1515L204.662 52.3939L204.665 54.3613Z" fill="white"/>
<path d="M218.575 55.2363C218.482 55.2151 218.322 55.1999 218.105 55.1832C217.891 55.1649 217.668 55.1558 217.452 55.1558L216.504 55.2181L216.413 55.2363C216.413 54.9051 216.436 54.0848 216.477 52.7828C216.495 52.2541 216.507 51.7649 216.507 51.303V49.9038L216.467 47.8468C216.203 48.2175 215.961 48.5639 215.732 48.892C215.444 49.3098 215.161 49.7428 214.878 50.1818C214.495 50.7774 213.981 51.5947 213.333 52.6385C212.398 54.141 211.861 55.01 211.717 55.2348C211.502 55.1847 211.308 55.1543 211.142 55.1543C211.027 55.1543 210.91 55.1725 210.789 55.1999L210.642 55.2318V51.9897V50.4249C210.642 49.9555 210.629 49.4481 210.612 48.9057C210.586 48.3648 210.575 47.9091 210.563 47.5384C210.563 47.3166 210.556 47.072 210.539 46.8167C210.495 46.1604 210.472 45.7548 210.472 45.5877L210.432 44.7415L211.507 44.8007L212.584 44.7263L212.571 45.018C212.571 45.2231 212.555 45.5269 212.527 45.9356C212.495 46.3458 212.478 46.6603 212.478 46.8714V48.576V51.9563C212.796 51.5173 213.177 50.9703 213.623 50.3125C213.834 49.995 214.05 49.6805 214.272 49.3599C214.76 48.6262 215.248 47.8772 215.728 47.1282C216.21 46.3716 216.705 45.574 217.216 44.7248C217.434 44.7719 217.629 44.7992 217.807 44.7992C217.978 44.7992 218.178 44.7719 218.396 44.7248L218.356 45.4464V47.9212C218.356 49.3858 218.371 50.668 218.402 51.7664C218.426 52.8755 218.485 54.0286 218.575 55.2363Z" fill="white"/>
<path d="M223.999 45.8657L223.973 46.9915L223.931 50.8123L223.973 52.7828C223.973 53.1596 223.979 53.6412 223.992 54.2245C224.008 54.8094 224.016 55.1452 224.016 55.2363C223.862 55.2363 223.648 55.2242 223.376 55.1999C223.109 55.1695 222.947 55.1589 222.894 55.1589C222.729 55.1589 222.513 55.1725 222.248 55.1999C221.983 55.2272 221.822 55.2363 221.769 55.2363C221.769 54.9507 221.792 54.5542 221.83 54.0407C221.872 53.5272 221.894 53.2006 221.894 53.0578C221.894 52.2495 221.899 51.2256 221.914 49.9874C221.929 48.7477 221.937 48.0321 221.937 47.8514L221.897 45.8657C221.759 45.8657 221.534 45.8779 221.216 45.8976C220.899 45.9204 220.732 45.9295 220.704 45.9295L219.375 46.0814C219.42 45.8976 219.444 45.6773 219.444 45.4191C219.444 45.337 219.444 45.2565 219.444 45.176C219.425 45.0514 219.416 44.9648 219.416 44.9147L219.373 44.7324L220.404 44.7612C220.685 44.7612 221.159 44.7703 221.824 44.7931C222.493 44.8144 222.848 44.825 222.894 44.825H224.303C224.631 44.825 224.895 44.819 225.1 44.8038C225.907 44.7582 226.355 44.7324 226.426 44.7324C226.401 44.904 226.385 45.018 226.378 45.0757C226.373 45.1334 226.372 45.2246 226.372 45.3477C226.372 45.6242 226.393 45.8672 226.426 46.083C225.582 45.9402 224.776 45.8657 223.999 45.8657Z" fill="white"/>
<path d="M231.406 45.8657L231.382 46.9915L231.34 50.8124L231.382 52.7828C231.382 53.1596 231.384 53.6412 231.402 54.2246C231.414 54.8095 231.423 55.1452 231.423 55.2364C231.272 55.2364 231.068 55.2242 230.808 55.1999C230.549 55.1695 230.399 55.1589 230.345 55.1589C230.191 55.1589 229.983 55.1726 229.727 55.1999C229.474 55.2273 229.324 55.2364 229.27 55.2364C229.27 54.9508 229.291 54.5542 229.328 54.0407C229.365 53.5272 229.385 53.2006 229.385 53.0578C229.385 52.2496 229.394 51.2256 229.408 49.9874C229.422 48.7477 229.425 48.0322 229.425 47.8514L229.388 45.8657C229.258 45.8657 229.041 45.8779 228.741 45.8976C228.437 45.9204 228.276 45.9295 228.247 45.9295L226.977 46.0815C227.017 45.8976 227.041 45.6773 227.041 45.4191C227.041 45.337 227.041 45.2565 227.041 45.176C227.021 45.0514 227.012 44.9648 227.012 44.9147L226.977 44.7309L227.958 44.7597C228.23 44.7597 228.685 44.7688 229.325 44.7916C229.963 44.8129 230.304 44.8235 230.346 44.8235H231.698C232.01 44.8235 232.263 44.8175 232.455 44.8023C233.235 44.7567 233.659 44.7309 233.729 44.7309C233.703 44.9025 233.689 45.0165 233.682 45.0742C233.679 45.1319 233.676 45.2231 233.676 45.3462C233.676 45.6227 233.696 45.8657 233.729 46.0815C232.926 45.9402 232.152 45.8657 231.406 45.8657Z" fill="white"/>
<path d="M234.691 44.9299V44.7324C234.94 44.7324 235.317 44.7476 235.827 44.7764C236.336 44.8068 236.718 44.8235 236.979 44.8235C237.441 44.8235 238.058 44.8053 238.834 44.7764C239.611 44.746 240.073 44.7324 240.226 44.7324C240.192 44.9283 240.172 45.1471 240.172 45.3932C240.172 45.4555 240.174 45.5254 240.177 45.6014C240.183 45.6804 240.192 45.7654 240.202 45.8703L240.229 46.0556C239.865 46.0556 239.319 46.0252 238.589 45.969C237.859 45.9128 237.311 45.8839 236.949 45.8839L236.89 47.4822V49.1837L240.177 49.0667C240.157 49.2278 240.143 49.3645 240.127 49.486C240.113 49.6015 240.105 49.7033 240.105 49.7793C240.105 49.916 240.113 50.0223 240.127 50.1059C240.143 50.1895 240.157 50.273 240.177 50.3672C239.899 50.3672 239.476 50.3444 238.907 50.2958C238.342 50.2548 237.909 50.2274 237.61 50.2274H236.905L236.89 52.1766V54.1106C237.916 54.1106 239.028 54.0453 240.233 53.9116C240.197 54.1045 240.177 54.3248 240.177 54.5724C240.177 54.6347 240.18 54.7046 240.183 54.7806C240.189 54.8596 240.197 54.9447 240.207 55.0495L240.234 55.2363C239.948 55.2363 239.516 55.2181 238.942 55.1893C238.366 55.1574 237.929 55.1437 237.628 55.1437L235.931 55.1893L234.652 55.2363L234.707 54.3643L234.78 51.4854V49.1503V47.3576C234.78 46.9656 234.774 46.6709 234.766 46.4673C234.711 45.4525 234.691 44.939 234.691 44.9299Z" fill="white"/>
</svg>
