<svg width="14" height="14" viewBox="0 0 14 14" fill="none" xmlns="http://www.w3.org/2000/svg">
<path d="M13.3804 13.4982L11.4867 11.6044M10.4929 2.33566L10.4492 4.70441C10.4429 5.02941 10.6492 5.46066 10.9117 5.65441L12.4617 6.82941C13.4554 7.57941 13.2929 8.49816 12.1054 8.87316L10.0867 9.50441C9.74919 9.61066 9.39294 9.97941 9.30544 10.3232L8.82419 12.1607C8.44294 13.6107 7.49294 13.7544 6.70544 12.4794L5.60544 10.6982C5.40544 10.3732 4.93044 10.1294 4.55544 10.1482L2.46794 10.2544C0.974192 10.3294 0.549193 9.46691 1.52419 8.32941L2.76169 6.89191C2.99294 6.62316 3.09919 6.12316 2.99294 5.78566L2.36169 3.76691C1.99294 2.57941 2.65544 1.92316 3.83669 2.31066L5.68044 2.91691C5.99294 3.01691 6.46169 2.94816 6.72419 2.75441L8.64919 1.36691C9.68669 0.616907 10.5179 1.05441 10.4929 2.33566Z" stroke="white" stroke-linecap="round" stroke-linejoin="round"/>
</svg>
